ply
format ascii 1.0
comment VCGLIB generated
element vertex 286
property float x
property float y
property float z
property uchar red
property uchar green
property uchar blue
property uchar alpha
element face 358
property list uchar int vertex_indices
end_header
0.0170271 0.0567034 0.263992 255 255 255 255 
0.00662833 0.0635369 0.302242 255 255 255 255 
0.0170298 0.0583154 0.264825 255 255 255 255 
0.0212044 0.0590894 0.268623 255 255 255 255 
0.0209959 0.0567294 0.264973 255 255 255 255 
0.028529 0.0527389 0.272767 255 255 255 255 
0.0207355 0.0567372 0.269199 255 255 255 255 
-0.0263053 0.0526906 0.284116 255 255 255 255 
0.0447541 0.0488907 0.312155 255 255 255 255 
-0.0104304 0.0534381 0.260976 255 255 255 255 
-0.00274517 0.0514216 0.253293 255 255 255 255 
0.00912414 0.055928 0.253152 255 255 255 255 
0.013495 0.0534969 0.256596 255 255 255 255 
0.0131208 0.0514419 0.253233 255 255 255 255 
-0.0103166 0.0527972 0.260505 255 255 255 255 
0.0167503 0.0540739 0.261457 255 255 255 255 
-0.0148526 0.0539328 0.260128 255 255 255 255 
-0.013663 0.0520341 0.264876 255 255 255 255 
-0.0142229 0.0527972 0.263718 255 255 255 255 
-0.0153428 0.0527972 0.264951 255 255 255 255 
-0.0211076 0.0478002 0.272959 255 255 255 255 
0.0287459 0.0527972 0.272059 255 255 255 255 
-0.0255845 0.0484455 0.277364 255 255 255 255 
0.0275385 0.0522489 0.272774 255 255 255 255 
0.0366733 0.0517943 0.280543 255 255 255 255 
-0.0298536 0.0488968 0.305981 255 255 255 255 
-0.0130887 0.0487931 0.330808 255 255 255 255 
0.0297849 0.0485178 0.323615 255 255 255 255 
-0.0104172 0.0492279 0.252934 255 255 255 255 
-0.0103166 0.0508888 0.257139 255 255 255 255 
-0.0142229 0.0496221 0.257139 255 255 255 255 
0.0170271 0.0501603 0.257139 255 255 255 255 
-0.0137656 0.0429556 0.26514 255 255 255 255 
-0.0181278 0.0455328 0.257139 255 255 255 255 
0.0251031 0.0504801 0.260061 255 255 255 255 
-0.0181291 0.0517906 0.268857 255 255 255 255 
-0.0220354 0.0503754 0.268857 255 255 255 255 
0.0369219 0.0492124 0.276322 255 255 255 255 
0.0441484 0.0448071 0.303392 255 255 255 255 
0.0382062 0.0488909 0.280576 255 255 255 255 
-0.0292463 0.0483684 0.284615 255 255 255 255 
-0.0291961 0.048347 0.292965 255 255 255 255 
-0.0298165 0.0496009 0.304024 255 255 255 255 
-0.0305713 0.0488909 0.304014 255 255 255 255 
0.0343321 0.0413401 0.339937 255 255 255 255 
0.0144941 0.0202041 0.3648 255 255 255 255 
-0.010284 0.0457923 0.249351 255 255 255 255 
-0.000162981 0.0315631 0.278632 255 255 255 255 
-0.00490779 0.0507879 0.247817 255 255 255 255 
-0.0182035 0.051486 0.250592 255 255 255 255 
0.0194565 0.0506601 0.247618 255 255 255 255 
0.023264 0.0510004 0.24984 255 255 255 255 
-0.0155886 0.0488909 0.257139 255 255 255 255 
0.0200062 0.044799 0.257285 255 255 255 255 
0.0183582 0.0488909 0.257139 255 255 255 255 
0.0266344 0.0433698 0.266813 255 255 255 255 
-0.0191414 0.0488909 0.264951 255 255 255 255 
-0.0220354 0.0488909 0.268091 255 255 255 255 
-0.0220354 0.0467633 0.264951 255 255 255 255 
0.0326521 0.0452402 0.264951 255 255 255 255 
0.0319035 0.0441962 0.269742 255 255 255 255 
-0.0259416 0.0451552 0.272764 255 255 255 255 
-0.026153 0.0451498 0.27246 255 255 255 255 
-0.0250436 0.0449847 0.268857 255 255 255 255 
-0.0229501 0.0488909 0.268857 255 255 255 255 
0.0368731 0.0447624 0.272266 255 255 255 255 
-0.0261548 0.0449847 0.272764 255 255 255 255 
-0.0299501 0.046365 0.27757 255 255 255 255 
0.0423518 0.0395646 0.285727 255 255 255 255 
-0.0296656 0.0484823 0.292095 255 255 255 255 
0.0443639 0.0432901 0.300111 255 255 255 255 
0.0441187 0.0427782 0.307769 255 255 255 255 
0.0443709 0.0449847 0.304943 255 255 255 255 
0.0405948 0.0449847 0.311826 255 255 255 255 
0.0403714 0.0449138 0.311959 255 255 255 255 
0.035846 0.0443982 0.323415 255 255 255 255 
0.0351889 0.0452452 0.323374 255 255 255 255 
0.0365584 0.0449847 0.324385 255 255 255 255 
-0.00763119 0.0449847 0.24542 255 255 255 255 
-0.0103166 0.0449847 0.248334 255 255 255 255 
-0.0103166 0.0435935 0.24542 255 255 255 255 
0.0209332 0.0405531 0.253233 255 255 255 255 
0.0249893 0.0386553 0.252949 255 255 255 255 
-0.025365 0.0427939 0.255287 255 255 255 255 
-0.0193015 0.0449847 0.261045 255 255 255 255 
-0.0220354 0.0449847 0.263309 255 255 255 255 
-0.0186127 0.0398744 0.266331 255 255 255 255 
0.0304001 0.0422726 0.258734 255 255 255 255 
0.0391893 0.0545937 0.243149 255 255 255 255 
-0.0294849 0.0407513 0.271644 255 255 255 255 
-0.0259416 0.0404155 0.264951 255 255 255 255 
-0.0242266 0.0449847 0.264951 255 255 255 255 
0.0288354 0.0437887 0.26692 255 255 255 255 
0.0460248 0.0444054 0.27509 255 255 255 255 
-0.0350279 0.0412339 0.284496 255 255 255 255 
0.0422644 0.0397456 0.295847 255 255 255 255 
-0.0424831 0.0319048 0.295741 255 255 255 255 
0.04468 0.0449847 0.304014 255 255 255 255 
0.0459983 0.0410784 0.300107 255 255 255 255 
0.0472065 0.036741 0.300232 255 255 255 255 
0.0458907 0.0410784 0.30792 255 255 255 255 
0.0460896 0.0417444 0.313066 255 255 255 255 
-0.0297337 0.0381039 0.327385 255 255 255 255 
0.0330563 0.0370494 0.3391 255 255 255 255 
-0.0191045 0.0348082 0.248065 255 255 255 255 
0.0209278 0.0371153 0.24934 255 255 255 255 
0.0170271 0.0382554 0.249326 255 255 255 255 
-0.0220354 0.0394073 0.261045 255 255 255 255 
0.0287459 0.0371722 0.258372 255 255 255 255 
0.029748 0.0375757 0.255599 255 255 255 255 
0.0254316 0.0410784 0.257139 255 255 255 255 
-0.0259416 0.0378026 0.261045 255 255 255 255 
-0.0283776 0.0371722 0.264951 255 255 255 255 
0.0357874 0.0347538 0.265938 255 255 255 255 
0.0355427 0.0371722 0.264951 255 255 255 255 
-0.0372046 0.0432778 0.27173 255 255 255 255 
-0.0271605 0.0349458 0.273408 255 255 255 255 
-0.0329021 0.0406471 0.281143 255 255 255 255 
-0.0376655 0.037209 0.284481 255 255 255 255 
0.0420518 0.0409464 0.285538 255 255 255 255 
0.04299 0.040401 0.280542 255 255 255 255 
-0.0387427 0.0423679 0.29232 255 255 255 255 
-0.0389471 0.0371492 0.292294 255 255 255 255 
0.0490148 0.0378989 0.295394 255 255 255 255 
0.0449156 0.0369052 0.311473 255 255 255 255 
-0.0364574 0.0358875 0.315515 255 255 255 255 
0.0445171 0.0372752 0.316668 255 255 255 255 
-0.0306726 0.0371722 0.327451 255 255 255 255 
-0.0298689 0.0371836 0.331368 255 255 255 255 
0.0326715 0.0371877 0.340273 255 255 255 255 
0.0165808 0.0371722 0.249326 255 255 255 255 
0.0131209 0.0371722 0.25109 255 255 255 255 
0.0131209 0.0354087 0.249326 255 255 255 255 
-0.0314115 0.0345335 0.255972 255 255 255 255 
-0.0237333 0.038447 0.256908 255 255 255 255 
-0.0437974 0.0441163 0.248093 255 255 255 255 
0.0234027 0.036885 0.254195 255 255 255 255 
-0.0252948 0.0356178 0.262039 255 255 255 255 
0.0326521 0.0371722 0.259677 255 255 255 255 
0.0326521 0.034867 0.257139 255 255 255 255 
-0.0298479 0.0352144 0.264951 255 255 255 255 
0.0364582 0.0292998 0.261127 255 255 255 255 
0.0338237 0.0371722 0.261045 255 255 255 255 
-0.0310598 0.0332659 0.264951 255 255 255 255 
-0.0372525 0.0290775 0.274772 255 255 255 255 
-0.0353737 0.0345448 0.275407 255 255 255 255 
0.0400978 0.0370154 0.269266 255 255 255 255 
0.0404646 0.0354629 0.268857 255 255 255 255 
-0.0383488 0.0341786 0.280156 255 255 255 255 
0.0470496 0.0290471 0.284283 255 255 255 255 
0.0517716 0.0256469 0.28838 255 255 255 255 
-0.0388632 0.0371722 0.288389 255 255 255 255 
-0.0448647 0.0348282 0.288205 255 255 255 255 
0.0447094 0.0307512 0.296062 255 255 255 255 
0.0486498 0.0371722 0.296201 255 255 255 255 
0.0552605 0.0246525 0.301099 255 255 255 255 
-0.0402129 0.0332417 0.315728 255 255 255 255 
-0.0373268 0.0330247 0.320143 255 255 255 255 
0.0413151 0.030554 0.335611 255 255 255 255 
-0.0308533 0.0332659 0.331357 255 255 255 255 
-0.0310016 0.0358945 0.33965 255 255 255 255 
-0.0296496 0.0291457 0.338746 255 255 255 255 
0.0326521 0.0343191 0.343076 255 255 255 255 
0.0331238 0.0332906 0.343053 255 255 255 255 
0.0326521 0.0332659 0.344663 255 255 255 255 
-0.0107502 0.0312848 0.247325 255 255 255 255 
-0.0181291 0.0332659 0.248739 255 255 255 255 
-0.0197753 0.0347324 0.241332 255 255 255 255 
0.00321147 0.0344028 0.243507 255 255 255 255 
0.0130547 0.0297373 0.244768 255 255 255 255 
0.0131209 0.0332659 0.247299 255 255 255 255 
-0.0188188 0.0332659 0.249326 255 255 255 255 
-0.0199451 0.0285014 0.249898 255 255 255 255 
-0.0298567 0.0293747 0.255225 255 255 255 255 
0.028735 0.0295877 0.253131 255 255 255 255 
-0.0314699 0.0293597 0.257139 255 255 255 255 
-0.0337541 0.0306877 0.264951 255 255 255 255 
-0.0330592 0.0273274 0.265757 255 255 255 255 
0.0369005 0.0332659 0.264951 255 255 255 255 
0.0404646 0.0332659 0.268139 255 255 255 255 
-0.0376604 0.0314281 0.27667 255 255 255 255 
0.0384654 0.026317 0.27678 255 255 255 255 
0.0384222 0.0315508 0.28086 255 255 255 255 
0.0503189 0.0355062 0.269935 255 255 255 255 
0.0417799 0.0287973 0.273387 255 255 255 255 
-0.0383338 0.029089 0.276755 255 255 255 255 
0.0477758 0.0292495 0.279337 255 255 255 255 
0.0462569 0.0293597 0.27667 255 255 255 255 
-0.0415661 0.0294043 0.284483 255 255 255 255 
-0.0416159 0.029382 0.284475 255 255 255 255 
-0.0409095 0.0288897 0.288738 255 255 255 255 
-0.0415666 0.0316557 0.292295 255 255 255 255 
0.0522342 0.0250344 0.288379 255 255 255 255 
-0.0458423 0.0304069 0.295111 255 255 255 255 
-0.0454729 0.0295444 0.300107 255 255 255 255 
-0.0453444 0.0292521 0.299903 255 255 255 255 
-0.0467584 0.0297499 0.308261 255 255 255 255 
-0.0411396 0.023491 0.308703 255 255 255 255 
-0.0247247 0.0283697 0.337742 255 255 255 255 
0.0403798 0.029282 0.335486 255 255 255 255 
-0.0220105 0.0270468 0.245437 255 255 255 255 
-0.0198918 0.0290062 0.24617 255 255 255 255 
-0.0211965 0.0243184 0.244954 255 255 255 255 
0.00193749 0.0287229 0.246462 255 255 255 255 
0.00162938 0.020006 0.24421 255 255 255 255 
0.00922008 0.0274959 0.245466 255 255 255 255 
-0.0321757 0.0293151 0.24347 255 255 255 255 
-0.0298479 0.0279879 0.253232 255 255 255 255 
0.0197832 0.0285642 0.252587 255 255 255 255 
0.0287542 0.0238841 0.249236 255 255 255 255 
-0.0336064 0.0292068 0.26343 255 255 255 255 
-0.03253 0.0252641 0.253363 255 255 255 255 
0.0302258 0.0201519 0.25524 255 255 255 255 
0.0326521 0.0254534 0.255181 255 255 255 255 
0.0326521 0.0293597 0.257066 255 255 255 255 
0.0351475 0.019766 0.259579 255 255 255 255 
0.0343204 0.0254534 0.257139 255 255 255 255 
0.0327264 0.0293597 0.257139 255 255 255 255 
0.040458 0.0293546 0.264955 255 255 255 255 
0.0455297 0.0226035 0.264037 255 255 255 255 
0.0443569 0.025132 0.269071 255 255 255 255 
0.0447693 0.0254211 0.272816 255 255 255 255 
0.0469861 0.0290537 0.281093 255 255 255 255 
0.0480847 0.0245063 0.280667 255 255 255 255 
0.0520078 0.0253015 0.287212 255 255 255 255 
0.0556793 0.0254212 0.29611 255 255 255 255 
-0.0449829 0.0246395 0.307624 255 255 255 255 
0.00924639 0.0265029 0.23838 255 255 255 255 
0.0198055 0.0214331 0.245455 255 255 255 255 
0.0230871 0.0254534 0.24542 255 255 255 255 
0.0240668 0.0214606 0.248055 255 255 255 255 
0.0248396 0.0242831 0.249326 255 255 255 255 
0.0400765 0.0215472 0.261045 255 255 255 255 
0.0456301 0.0215472 0.268857 255 255 255 255 
0.051051 0.0230231 0.273816 255 255 255 255 
0.0525275 0.0222785 0.280152 255 255 255 255 
0.0551386 0.0176686 0.280462 255 255 255 255 
0.0557039 0.0229201 0.300095 255 255 255 255 
0.0564164 0.0254534 0.300107 255 255 255 255 
0.0400032 0.0288535 0.335039 255 255 255 255 
-0.00914238 0.020885 0.401696 255 255 255 255 
0.0107317 0.0221863 0.239177 255 255 255 255 
0.0170429 0.0215301 0.241941 255 255 255 255 
0.0319921 0.0214659 0.249517 255 255 255 255 
0.0438409 0.0172756 0.262866 255 255 255 255 
0.045661 0.0173505 0.265319 255 255 255 255 
0.0506905 0.0175424 0.278035 255 255 255 255 
-0.0789209 0.0173009 0.354132 255 255 255 255 
-0.0998452 0.0202172 0.401655 255 255 255 255 
-0.112073 0.0179608 0.401464 255 255 255 255 
-0.0807694 0.0208441 0.401616 255 255 255 255 
-0.0126834 0.00629251 0.206743 255 255 255 255 
-0.0509068 0.0175711 0.246324 255 255 255 255 
-0.065541 0.0172092 0.274563 255 255 255 255 
0.0580708 0.00910954 0.347792 255 255 255 255 
0.026329 0.013946 0.397634 255 255 255 255 
-0.12301 0.0234826 0.401252 255 255 255 255 
0.0253267 0.0138097 0.401669 255 255 255 255 
0.0495432 0.00896446 0.397858 255 255 255 255 
0.0773579 -0.000588131 0.266555 255 255 255 255 
-0.132634 0.0106422 0.329988 255 255 255 255 
0.0912193 0.0043491 0.353287 255 255 255 255 
0.0738211 0.00416265 0.393996 255 255 255 255 
0.072813 0.00588356 0.397685 255 255 255 255 
-0.109674 0.00996547 0.235816 255 255 255 255 
0.0412462 0.00267028 0.227557 255 255 255 255 
0.0746251 0.00192903 0.315179 255 255 255 255 
0.133873 -0.00696518 0.389928 255 255 255 255 
0.114315 -0.00359465 0.393891 255 255 255 255 
-0.0649813 0.00638884 0.17083 255 255 255 255 
-0.134906 0.00131618 0.186332 255 255 255 255 
0.126021 -0.00833518 0.203943 255 255 255 255 
0.1254 0.000503702 0.393812 255 255 255 255 
0.0741028 0.00203162 0.178675 255 255 255 255 
0.132843 -0.00427992 0.2883 255 255 255 255 
0.122558 -0.00628825 0.390006 255 255 255 255 
0.125822 -0.00764318 0.394758 255 255 255 255 
0.125823 -0.00764401 0.394758 255 255 255 255 
-0.0652099 -0.0085044 0.116053 255 255 255 255 
-0.00449267 -0.00119937 0.144918 255 255 255 255 
-0.141843 -0.00598032 0.144794 255 255 255 255 
0.158588 -0.0137145 0.38604 255 255 255 255 
0.154051 -0.0136106 0.389951 255 255 255 255 
0.0844856 -0.00995017 0.129877 255 255 255 255 
0.0246261 -0.0161191 0.108246 255 255 255 255 
0.13575 -0.017803 0.133498 255 255 255 255 
3 3 1 2 
3 11 2 1 
3 0 2 15 
3 0 15 4 
3 2 4 3 
3 4 15 6 
3 3 6 5 
3 3 5 1 
3 25 1 26 
3 9 14 29 
3 9 29 10 
3 10 11 9 
3 9 11 1 
3 11 13 12 
3 11 12 2 
3 12 15 2 
3 9 17 16 
3 9 1 17 
3 14 16 29 
3 15 12 31 
3 16 17 18 
3 18 19 16 
3 15 34 6 
3 17 1 20 
3 19 17 35 
3 19 32 16 
3 19 35 32 
3 17 20 35 
3 20 1 22 
3 6 21 5 
3 6 23 21 
3 22 1 7 
3 5 24 1 
3 5 23 24 
3 24 23 37 
3 24 38 1 
3 1 38 8 
3 1 25 7 
3 25 42 7 
3 8 27 1 
3 1 27 44 
3 28 10 29 
3 29 16 30 
3 28 49 47 
3 32 33 52 
3 34 54 53 
3 34 23 6 
3 34 55 23 
3 35 20 36 
3 20 61 63 
3 20 63 64 
3 20 22 61 
3 22 40 67 
3 37 68 39 
3 24 39 38 
3 7 41 40 
3 38 39 68 
3 7 42 41 
3 43 69 42 
3 43 25 69 
3 8 38 71 
3 26 1 44 
3 26 44 45 
3 28 47 46 
3 28 46 48 
3 51 50 81 
3 51 81 53 
3 34 53 82 
3 55 34 87 
3 55 87 88 
3 55 59 60 
3 55 60 23 
3 56 57 58 
3 60 65 23 
3 61 62 63 
3 61 67 66 
3 61 22 67 
3 63 62 86 
3 63 86 91 
3 23 65 37 
3 60 92 65 
3 66 67 89 
3 66 89 62 
3 68 37 93 
3 40 69 94 
3 38 68 95 
3 41 42 69 
3 38 95 70 
3 38 70 97 
3 38 72 71 
3 71 73 8 
3 71 101 73 
3 72 97 100 
3 72 100 71 
3 73 101 74 
3 26 102 25 
3 8 75 27 
3 8 74 75 
3 75 77 27 
3 27 77 76 
3 27 76 103 
3 27 103 44 
3 78 79 80 
3 47 104 46 
3 50 105 81 
3 50 106 105 
3 81 82 53 
3 83 84 85 
3 83 85 86 
3 83 86 107 
3 83 107 134 
3 86 90 107 
3 87 109 108 
3 87 110 109 
3 62 89 90 
3 62 90 86 
3 92 114 65 
3 65 114 113 
3 94 69 121 
3 94 118 117 
3 94 121 118 
3 121 69 96 
3 96 69 25 
3 70 98 97 
3 97 98 99 
3 97 99 100 
3 98 123 99 
3 98 119 123 
3 99 124 100 
3 100 124 101 
3 25 102 125 
3 74 101 126 
3 74 126 75 
3 107 90 111 
3 134 137 133 
3 108 109 138 
3 109 136 174 
3 90 89 112 
3 112 89 116 
3 112 116 140 
3 112 140 137 
3 116 143 140 
3 114 141 113 
3 114 142 141 
3 116 115 145 
3 116 145 144 
3 115 117 145 
3 117 118 148 
3 119 120 182 
3 119 149 150 
3 121 96 122 
3 119 150 153 
3 119 153 123 
3 122 152 151 
3 99 155 124 
3 99 154 153 
3 99 153 155 
3 96 25 125 
3 126 158 75 
3 102 127 157 
3 102 157 125 
3 75 158 76 
3 102 26 128 
3 127 128 159 
3 127 159 157 
3 76 158 103 
3 103 158 163 
3 26 160 128 
3 103 163 129 
3 129 162 164 
3 129 164 44 
3 129 163 162 
3 130 131 132 
3 133 173 172 
3 133 172 134 
3 134 172 135 
3 135 172 171 
3 109 139 138 
3 133 137 140 
3 143 116 144 
3 143 210 133 
3 143 176 210 
3 143 144 176 
3 182 149 119 
3 152 122 190 
3 122 191 190 
3 122 96 191 
3 153 192 155 
3 96 125 156 
3 126 124 158 
3 159 160 198 
3 159 198 157 
3 26 161 160 
3 163 158 199 
3 163 199 164 
3 44 164 199 
3 165 166 167 
3 203 205 168 
3 168 205 170 
3 205 169 170 
3 172 200 201 
3 173 175 207 
3 173 207 172 
3 174 213 214 
3 175 133 210 
3 175 210 207 
3 176 144 177 
3 141 216 215 
3 141 217 216 
3 178 218 179 
3 145 180 144 
3 145 148 180 
3 180 148 185 
3 181 182 183 
3 181 183 184 
3 182 187 186 
3 184 220 181 
3 148 188 185 
3 148 152 188 
3 182 186 149 
3 186 187 222 
3 187 181 221 
3 187 221 223 
3 187 223 222 
3 188 152 190 
3 189 190 193 
3 189 193 253 
3 188 189 185 
3 150 192 153 
3 150 149 224 
3 149 222 224 
3 96 194 193 
3 193 194 195 
3 194 96 196 
3 96 156 196 
3 196 156 197 
3 156 226 197 
3 156 157 226 
3 26 198 161 
3 44 199 45 
3 200 202 201 
3 201 202 204 
3 201 204 203 
3 203 204 227 
3 203 227 205 
3 206 200 172 
3 206 172 207 
3 207 210 211 
3 208 228 230 
3 208 229 228 
3 208 230 231 
3 208 209 174 
3 208 231 209 
3 174 212 213 
3 210 177 211 
3 213 212 216 
3 141 219 218 
3 216 212 215 
3 219 141 232 
3 219 220 218 
3 218 220 184 
3 221 220 233 
3 221 233 234 
3 221 234 223 
3 189 253 185 
3 223 224 222 
3 223 235 224 
3 192 225 155 
3 192 236 225 
3 192 224 236 
3 195 226 253 
3 195 253 193 
3 195 196 226 
3 124 155 158 
3 158 155 239 
3 226 157 198 
3 26 45 198 
3 211 252 206 
3 228 242 230 
3 215 244 232 
3 232 244 219 
3 177 144 185 
3 233 219 245 
3 233 245 234 
3 177 185 253 
3 235 236 224 
3 235 234 246 
3 237 238 225 
3 199 239 254 
3 252 202 206 
3 241 230 242 
3 241 265 230 
3 252 211 177 
3 252 177 253 
3 212 244 215 
3 234 245 246 
3 225 236 237 
3 237 236 266 
3 237 266 155 
3 226 198 247 
3 199 254 45 
3 260 247 256 
3 247 198 250 
3 247 248 256 
3 198 240 250 
3 256 248 249 
3 248 247 250 
3 269 251 252 
3 264 269 252 
3 252 251 202 
3 202 251 204 
3 264 252 253 
3 204 265 241 
3 265 243 230 
3 212 243 244 
3 253 260 264 
3 236 259 266 
3 253 247 260 
3 253 226 247 
3 155 266 239 
3 239 266 254 
3 198 45 240 
3 45 255 240 
3 240 255 257 
3 204 251 265 
3 243 265 244 
3 258 255 45 
3 279 251 269 
3 265 245 244 
3 265 259 245 
3 245 259 246 
3 246 259 236 
3 266 261 254 
3 254 258 45 
3 254 261 262 
3 254 262 258 
3 262 263 258 
3 279 273 251 
3 270 269 264 
3 251 273 265 
3 265 273 259 
3 259 274 266 
3 266 274 261 
3 261 268 262 
3 280 269 270 
3 273 271 259 
3 261 274 267 
3 267 272 261 
3 261 272 268 
3 280 278 269 
3 278 279 269 
3 283 271 273 
3 271 274 259 
3 272 267 275 
3 279 283 273 
3 284 283 279 
3 285 271 283 
3 281 282 267 
